<?xml version="1.0" encoding="UTF-8" standalone="no"?>
<svg
   xmlns:dc="http://purl.org/dc/elements/1.1/"
   xmlns:cc="http://creativecommons.org/ns#"
   xmlns:rdf="http://www.w3.org/1999/02/22-rdf-syntax-ns#"
   xmlns:svg="http://www.w3.org/2000/svg"
   xmlns="http://www.w3.org/2000/svg"
   viewBox="0 0 43.438667 42.366489"
   height="42.366489"
   width="43.438667"
   xml:space="preserve"
   id="svg2"
   version="1.1"><metadata
     id="metadata8"><rdf:RDF><cc:Work
         rdf:about=""><dc:format>image/svg+xml</dc:format><dc:type
           rdf:resource="http://purl.org/dc/dcmitype/StillImage" /><dc:title></dc:title></cc:Work></rdf:RDF></metadata><defs
     id="defs6" /><g
     transform="translate(-14.64785,-11.766038)"
     id="layer1"><path
       d="m 36.365183,11.766038 c -11.992,0 -21.717333,9.724 -21.717333,21.719999 0,9.594667 6.222666,17.736 14.853333,20.609333 1.086667,0.198667 1.482667,-0.472 1.482667,-1.048 0,-0.516 -0.01867,-1.881333 -0.02933,-3.693333 -6.041333,1.312 -7.316,-2.912 -7.316,-2.912 -0.988,-2.509333 -2.412,-3.177333 -2.412,-3.177333 -1.971999,-1.346667 0.149334,-1.32 0.149334,-1.32 2.18,0.153333 3.326666,2.238667 3.326666,2.238667 1.937334,3.318666 5.084,2.359999 6.321334,1.803999 0.197333,-1.402666 0.758666,-2.359999 1.378666,-2.902666 -4.822666,-0.549333 -9.893333,-2.412 -9.893333,-10.734667 0,-2.371999 0.846667,-4.309333 2.236,-5.827999 -0.224,-0.549334 -0.969333,-2.757334 0.213333,-5.748 0,0 1.822667,-0.584 5.972,2.225333 1.732,-0.481333 3.590667,-0.721333 5.437333,-0.730667 1.845334,0.0093 3.702667,0.249334 5.437334,0.730667 4.146666,-2.809333 5.966666,-2.225333 5.966666,-2.225333 1.185333,2.990666 0.44,5.198666 0.217333,5.748 1.392,1.518666 2.232,3.456 2.232,5.827999 0,8.344 -5.078666,10.18 -9.915999,10.717334 0.778666,0.670666 1.473333,1.996 1.473333,4.022666 0,2.902667 -0.02667,5.245333 -0.02667,5.957333 0,0.581334 0.392,1.257334 1.493334,1.045334 8.623998,-2.878667 14.841332,-11.013333 14.841332,-20.606667 0,-11.995999 -9.725334,-21.719999 -21.721333,-21.719999"
       style="fill:#1b1817;fill-opacity:1;fill-rule:evenodd;stroke:none;stroke-width:0.133333"
       id="path16" /></g></svg>
