<?xml version="1.0" encoding="UTF-8" standalone="no"?>
<svg
   xmlns:dc="http://purl.org/dc/elements/1.1/"
   xmlns:cc="http://creativecommons.org/ns#"
   xmlns:rdf="http://www.w3.org/1999/02/22-rdf-syntax-ns#"
   xmlns:svg="http://www.w3.org/2000/svg"
   xmlns="http://www.w3.org/2000/svg"
   version="1.1"
   id="svg2"
   xml:space="preserve"
   width="125.51793"
   height="116.0303"
   viewBox="0 0 125.51793 116.0303"><metadata
     id="metadata8"><rdf:RDF><cc:Work
         rdf:about=""><dc:format>image/svg+xml</dc:format><dc:type
           rdf:resource="http://purl.org/dc/dcmitype/StillImage" /><dc:title></dc:title></cc:Work></rdf:RDF></metadata><defs
     id="defs6" /><g
     id="g42"
     transform="matrix(1.3333333,0,0,-1.3333333,-1.3600542,93.14166)"
     style="display:none"><g
       id="g40"
       transform="matrix(0.1,0,0,0.1,0,-23.340891)"
       style="fill:#aa87de"><path
         d="M 521.48639,8.0230372 919.39639,193.954 c 22.918,10.69877 22.918,28.065 0,38.77872 l -82.636,38.60724 -104.821,-48.97427 c 8.227,-11.38514 2.711,-24.43505 -16.707,-33.50597 -19.539,-9.11811 -47.707,-11.67716 -72.156,-7.73649 l -101.02,-47.20205 c 8.422,-11.41972 2.981,-24.5953 -16.57,-33.71388 -27.277,-12.748535 -71.476,-12.748535 -98.762,0 -27.293,12.7504 -27.293,33.40177 0,46.15778 20.532,9.58581 50.676,11.95657 75.954,7.10152 l 94.218,44.02064 -247.929,0.004 c -3.293,-3.10805 -7.688,-6.04136 -13.207,-8.63125 -27.274,-12.74479 -71.465,-12.74479 -98.782,0 -27.273,12.74854 -27.273,33.40925 0,46.14517 27.317,12.74666 71.508,12.74666 98.782,0 6.73,-3.15011 11.824,-6.79502 15.238,-10.68429 h 250.23 c 3.403,3.88927 8.461,7.52857 15.239,10.68429 20.648,9.65496 50.976,11.9804 76.351,7.02863 l 103.344,48.27669 -272.836,127.48619 c -22.937,10.71174 -60.105,10.71174 -83.027,0 L 42.388885,231.8674 c -22.91797,-10.70438 -22.91797,-28.065 0,-38.78433 L 438.45539,8.0230372 c 22.93,-10.7081146 60.109,-10.7081146 83.031,0"
         style="fill:#aa87de;fill-opacity:1;fill-rule:nonzero;stroke:none;stroke-width:0.683547"
         id="path38" /></g></g><g
     style="display:inline"
     transform="matrix(1.3333333,0,0,-1.3333333,-1.3600542,93.14166)"
     id="g36"><g
       transform="matrix(0.1,0,0,0.1,0,-15.665674)"
       id="g34"
       style="fill:#2d1650"><path
         id="path32"
         style="fill:#2d1650;fill-opacity:1;fill-rule:nonzero;stroke:none;stroke-width:0.683547"
         d="M 521.48639,8.0230372 919.39639,193.954 c 22.918,10.69877 22.918,28.065 0,38.77872 l -82.636,38.60724 -104.821,-48.97427 c 8.227,-11.38514 2.711,-24.43505 -16.707,-33.50597 -19.539,-9.11811 -47.707,-11.67716 -72.156,-7.73649 l -101.02,-47.20205 c 8.422,-11.41972 2.981,-24.5953 -16.57,-33.71388 -27.277,-12.748535 -71.476,-12.748535 -98.762,0 -27.293,12.7504 -27.293,33.40177 0,46.15778 20.532,9.58581 50.676,11.95657 75.954,7.10152 l 94.218,44.02064 -247.929,0.004 c -3.293,-3.10805 -7.688,-6.04136 -13.207,-8.63125 -27.274,-12.74479 -71.465,-12.74479 -98.782,0 -27.273,12.74854 -27.273,33.40925 0,46.14517 27.317,12.74666 71.508,12.74666 98.782,0 6.73,-3.15011 11.824,-6.79502 15.238,-10.68429 h 250.23 c 3.403,3.88927 8.461,7.52857 15.239,10.68429 20.648,9.65496 50.976,11.9804 76.351,7.02863 l 103.344,48.27669 -272.836,127.48619 c -22.937,10.71174 -60.105,10.71174 -83.027,0 L 42.388885,231.8674 c -22.91797,-10.70438 -22.91797,-28.065 0,-38.78433 L 438.45539,8.0230372 c 22.93,-10.7081146 60.109,-10.7081146 83.031,0" /></g></g><g
     transform="matrix(1.3333333,0,0,-1.3333333,-1.3600542,93.14166)"
     id="g30"
     style="display:inline"><g
       transform="matrix(0.1,0,0,0.1,0,-7.1695928)"
       id="g28"
       style="fill:#442178"><path
         id="path26"
         style="fill:#442178;fill-opacity:1;fill-rule:nonzero;stroke:none;stroke-width:0.683547"
         d="M 521.48639,8.0230372 919.39639,193.954 c 22.918,10.69877 22.918,28.065 0,38.77872 l -82.636,38.60724 -104.821,-48.97427 c 8.227,-11.38514 2.711,-24.43505 -16.707,-33.50597 -19.539,-9.11811 -47.707,-11.67716 -72.156,-7.73649 l -101.02,-47.20205 c 8.422,-11.41972 2.981,-24.5953 -16.57,-33.71388 -27.277,-12.748535 -71.476,-12.748535 -98.762,0 -27.293,12.7504 -27.293,33.40177 0,46.15778 20.532,9.58581 50.676,11.95657 75.954,7.10152 l 94.218,44.02064 -247.929,0.004 c -3.293,-3.10805 -7.688,-6.04136 -13.207,-8.63125 -27.274,-12.74479 -71.465,-12.74479 -98.782,0 -27.273,12.74854 -27.273,33.40925 0,46.14517 27.317,12.74666 71.508,12.74666 98.782,0 6.73,-3.15011 11.824,-6.79502 15.238,-10.68429 h 250.23 c 3.403,3.88927 8.461,7.52857 15.239,10.68429 20.648,9.65496 50.976,11.9804 76.351,7.02863 l 103.344,48.27669 -272.836,127.48619 c -22.937,10.71174 -60.105,10.71174 -83.027,0 L 42.388885,231.8674 c -22.91797,-10.70438 -22.91797,-28.065 0,-38.78433 L 438.45539,8.0230372 c 22.93,-10.7081146 60.109,-10.7081146 83.031,0" /></g></g><g
     style="display:inline"
     id="g10"
     transform="matrix(1.3333333,0,0,-1.3333333,-1.3600542,93.14166)"><g
       style="fill:#5a2ca0"
       id="g12"
       transform="matrix(0.1,0,0,0.1,0,0.99579407)"><path
         d="M 521.48639,8.0230372 919.39639,193.954 c 22.918,10.69877 22.918,28.065 0,38.77872 l -82.636,38.60724 -104.821,-48.97427 c 8.227,-11.38514 2.711,-24.43505 -16.707,-33.50597 -19.539,-9.11811 -47.707,-11.67716 -72.156,-7.73649 l -101.02,-47.20205 c 8.422,-11.41972 2.981,-24.5953 -16.57,-33.71388 -27.277,-12.748535 -71.476,-12.748535 -98.762,0 -27.293,12.7504 -27.293,33.40177 0,46.15778 20.532,9.58581 50.676,11.95657 75.954,7.10152 l 94.218,44.02064 -247.929,0.004 c -3.293,-3.10805 -7.688,-6.04136 -13.207,-8.63125 -27.274,-12.74479 -71.465,-12.74479 -98.782,0 -27.273,12.74854 -27.273,33.40925 0,46.14517 27.317,12.74666 71.508,12.74666 98.782,0 6.73,-3.15011 11.824,-6.79502 15.238,-10.68429 h 250.23 c 3.403,3.88927 8.461,7.52857 15.239,10.68429 20.648,9.65496 50.976,11.9804 76.351,7.02863 l 103.344,48.27669 -272.836,127.48619 c -22.937,10.71174 -60.105,10.71174 -83.027,0 L 42.388885,231.8674 c -22.91797,-10.70438 -22.91797,-28.065 0,-38.78433 L 438.45539,8.0230372 c 22.93,-10.7081146 60.109,-10.7081146 83.031,0"
         style="fill:#5a2ca0;fill-opacity:1;fill-rule:nonzero;stroke:none;stroke-width:0.683547"
         id="path20" /></g></g><g
     style="display:inline"
     transform="matrix(1.3333333,0,0,-1.3333333,-1.3600542,93.14166)"
     id="g86"><g
       style="fill:#442178"
       transform="matrix(0.1,0,0,0.1,0,9.0437373)"
       id="g84"><path
         id="path82"
         style="fill:#442178;fill-opacity:1;fill-rule:nonzero;stroke:none;stroke-width:0.683547"
         d="M 521.48639,8.0230372 919.39639,193.954 c 22.918,10.69877 22.918,28.065 0,38.77872 l -82.636,38.60724 -104.821,-48.97427 c 8.227,-11.38514 2.711,-24.43505 -16.707,-33.50597 -19.539,-9.11811 -47.707,-11.67716 -72.156,-7.73649 l -101.02,-47.20205 c 8.422,-11.41972 2.981,-24.5953 -16.57,-33.71388 -27.277,-12.748535 -71.476,-12.748535 -98.762,0 -27.293,12.7504 -27.293,33.40177 0,46.15778 20.532,9.58581 50.676,11.95657 75.954,7.10152 l 94.218,44.02064 -247.929,0.004 c -3.293,-3.10805 -7.688,-6.04136 -13.207,-8.63125 -27.274,-12.74479 -71.465,-12.74479 -98.782,0 -27.273,12.74854 -27.273,33.40925 0,46.14517 27.317,12.74666 71.508,12.74666 98.782,0 6.73,-3.15011 11.824,-6.79502 15.238,-10.68429 h 250.23 c 3.403,3.88927 8.461,7.52857 15.239,10.68429 20.648,9.65496 50.976,11.9804 76.351,7.02863 l 103.344,48.27669 -272.836,127.48619 c -22.937,10.71174 -60.105,10.71174 -83.027,0 L 42.388885,231.8674 c -22.91797,-10.70438 -22.91797,-28.065 0,-38.78433 L 438.45539,8.0230372 c 22.93,-10.7081146 60.109,-10.7081146 83.031,0" /></g></g><g
     style="display:inline"
     id="g92"
     transform="matrix(1.3333333,0,0,-1.3333333,-1.3600542,93.14166)"><g
       style="fill:#2d1650"
       id="g90"
       transform="matrix(0.1,0,0,0.1,0,17.583706)"><path
         d="M 521.48639,8.0230372 919.39639,193.954 c 22.918,10.69877 22.918,28.065 0,38.77872 l -82.636,38.60724 -104.821,-48.97427 c 8.227,-11.38514 2.711,-24.43505 -16.707,-33.50597 -19.539,-9.11811 -47.707,-11.67716 -72.156,-7.73649 l -101.02,-47.20205 c 8.422,-11.41972 2.981,-24.5953 -16.57,-33.71388 -27.277,-12.748535 -71.476,-12.748535 -98.762,0 -27.293,12.7504 -27.293,33.40177 0,46.15778 20.532,9.58581 50.676,11.95657 75.954,7.10152 l 94.218,44.02064 -247.929,0.004 c -3.293,-3.10805 -7.688,-6.04136 -13.207,-8.63125 -27.274,-12.74479 -71.465,-12.74479 -98.782,0 -27.273,12.74854 -27.273,33.40925 0,46.14517 27.317,12.74666 71.508,12.74666 98.782,0 6.73,-3.15011 11.824,-6.79502 15.238,-10.68429 h 250.23 c 3.403,3.88927 8.461,7.52857 15.239,10.68429 20.648,9.65496 50.976,11.9804 76.351,7.02863 l 103.344,48.27669 -272.836,127.48619 c -22.937,10.71174 -60.105,10.71174 -83.027,0 L 42.388885,231.8674 c -22.91797,-10.70438 -22.91797,-28.065 0,-38.78433 L 438.45539,8.0230372 c 22.93,-10.7081146 60.109,-10.7081146 83.031,0"
         style="fill:#2d1650;fill-opacity:1;fill-rule:nonzero;stroke:none;stroke-width:0.683547"
         id="path88" /></g></g><g
     style="display:inline"
     transform="matrix(1.3333333,0,0,-1.3333333,-1.3600542,93.14166)"
     id="g98"><g
       style="fill:#aa87de"
       transform="matrix(0.1,0,0,0.1,0,25.773199)"
       id="g96"><path
         id="path94"
         style="fill:#aa87de;fill-opacity:1;fill-rule:nonzero;stroke:none;stroke-width:0.683547"
         d="M 521.48639,8.0230372 919.39639,193.954 c 22.918,10.69877 22.918,28.065 0,38.77872 l -82.636,38.60724 -104.821,-48.97427 c 8.227,-11.38514 2.711,-24.43505 -16.707,-33.50597 -19.539,-9.11811 -47.707,-11.67716 -72.156,-7.73649 l -101.02,-47.20205 c 8.422,-11.41972 2.981,-24.5953 -16.57,-33.71388 -27.277,-12.748535 -71.476,-12.748535 -98.762,0 -27.293,12.7504 -27.293,33.40177 0,46.15778 20.532,9.58581 50.676,11.95657 75.954,7.10152 l 94.218,44.02064 -247.929,0.004 c -3.293,-3.10805 -7.688,-6.04136 -13.207,-8.63125 -27.274,-12.74479 -71.465,-12.74479 -98.782,0 -27.273,12.74854 -27.273,33.40925 0,46.14517 27.317,12.74666 71.508,12.74666 98.782,0 6.73,-3.15011 11.824,-6.79502 15.238,-10.68429 h 250.23 c 3.403,3.88927 8.461,7.52857 15.239,10.68429 20.648,9.65496 50.976,11.9804 76.351,7.02863 l 103.344,48.27669 -272.836,127.48619 c -22.937,10.71174 -60.105,10.71174 -83.027,0 L 42.388885,231.8674 c -22.91797,-10.70438 -22.91797,-28.065 0,-38.78433 L 438.45539,8.0230372 c 22.93,-10.7081146 60.109,-10.7081146 83.031,0" /></g></g></svg>
