<?xml version="1.0" standalone="no"?>
<!DOCTYPE svg PUBLIC "-//W3C//DTD SVG 20010904//EN"
 "http://www.w3.org/TR/2001/REC-SVG-20010904/DTD/svg10.dtd">
<svg version="1.0" xmlns="http://www.w3.org/2000/svg"
 width="1008.000000pt" height="1008.000000pt" viewBox="0 0 1008.000000 1008.000000"
 preserveAspectRatio="xMidYMid meet">
<metadata>
Created by potrace 1.11, written by Peter Selinger 2001-2013
</metadata>
<g transform="translate(0.000000,1008.000000) scale(0.100000,-0.100000)"
fill="#000000" stroke="none">
<path d="M7385 7612 l-80 -37 -80 12 c-44 6 -134 12 -200 12 -272 2 -534 -70
-659 -180 l-44 -39 -1332 0 -1332 0 -40 34 c-144 124 -414 193 -713 183 -242
-8 -427 -58 -569 -151 -115 -77 -155 -189 -104 -286 61 -115 277 -218 526
-251 114 -15 403 -6 501 16 115 26 238 74 309 121 l65 44 1316 -1 c1143 0
1312 -2 1286 -14 -16 -8 -145 -68 -285 -133 -140 -66 -349 -163 -463 -217
l-208 -97 -120 13 c-341 35 -680 -38 -832 -179 -173 -161 -78 -345 232 -451
226 -77 623 -80 847 -6 172 58 291 148 321 242 16 52 16 57 0 101 -10 26 -19
51 -20 56 -1 5 77 46 173 92 96 45 330 155 520 245 l345 162 250 1 c262 2 305
7 455 56 238 79 361 222 305 357 -17 41 -19 53 -6 53 4 0 44 17 87 37 l79 36
-80 38 c-128 61 -363 169 -367 169 -2 0 -39 -17 -83 -38z"/>
<path d="M9155 6789 c-82 -39 -361 -169 -895 -419 -168 -78 -408 -191 -535
-250 -126 -59 -264 -123 -305 -143 -41 -19 -250 -117 -465 -217 -214 -100
-451 -211 -525 -245 -124 -57 -377 -176 -795 -372 -88 -42 -187 -86 -221 -99
-133 -50 -341 -73 -507 -55 -214 23 -98 -25 -1587 671 -344 161 -686 321 -760
355 -74 34 -315 147 -535 250 -220 103 -461 216 -535 250 -74 34 -211 98 -305
142 -93 44 -209 98 -256 120 l-86 40 -278 -131 c-227 -106 -288 -140 -332
-179 -89 -82 -94 -161 -15 -249 37 -41 159 -105 515 -268 75 -35 137 -66 137
-69 0 -4 -133 -70 -297 -146 -248 -117 -304 -147 -344 -186 -63 -61 -79 -111
-55 -173 35 -90 93 -126 519 -321 70 -32 124 -62 120 -66 -4 -4 -111 -57 -238
-116 -303 -143 -309 -147 -355 -195 -73 -74 -74 -151 -3 -229 48 -53 74 -68
356 -199 137 -64 249 -120 250 -125 1 -4 -119 -65 -267 -134 -297 -139 -351
-176 -382 -256 -24 -63 -8 -115 54 -175 39 -37 100 -70 344 -185 164 -77 294
-143 290 -147 -4 -3 -135 -66 -291 -140 -233 -109 -295 -142 -338 -181 -93
-85 -94 -170 -5 -257 50 -48 61 -54 402 -213 124 -58 299 -140 390 -182 91
-43 264 -124 385 -180 121 -56 366 -171 545 -255 179 -84 521 -243 760 -355
535 -249 697 -325 915 -428 94 -44 271 -127 395 -184 709 -330 688 -322 887
-344 174 -18 381 6 518 61 39 15 216 96 395 180 179 84 429 201 555 260 441
206 841 393 1060 495 449 209 678 317 985 460 580 271 783 367 1020 477 129
60 263 124 298 140 126 62 191 147 176 232 -5 31 -19 53 -63 96 -51 51 -80 66
-348 190 -161 74 -292 137 -292 140 -1 3 90 47 202 99 111 52 245 115 297 140
218 105 266 234 132 352 -45 39 -83 59 -431 222 -84 40 -153 76 -153 81 0 5
108 59 239 121 311 146 301 140 356 193 84 82 85 163 1 245 -37 36 -95 69
-312 172 -147 69 -270 130 -274 134 -5 4 40 29 100 56 59 27 184 86 278 131
147 71 177 89 216 133 61 67 70 113 36 179 -14 27 -44 62 -72 83 -26 20 -175
96 -332 169 -156 74 -284 137 -284 140 0 4 53 31 118 60 313 141 497 237 534
278 78 87 73 168 -16 249 -39 36 -94 68 -217 125 -90 42 -216 101 -279 131
l-115 54 -80 -38z"/>
</g>
</svg>
